<?xml version="1.0" standalone="no"?>
<!DOCTYPE svg PUBLIC "-//W3C//DTD SVG 20010904//EN"
 "http://www.w3.org/TR/2001/REC-SVG-20010904/DTD/svg10.dtd">
<svg version="1.0" xmlns="http://www.w3.org/2000/svg"
 width="2671.000000pt" height="2966.000000pt" viewBox="0 0 2671.000000 2966.000000"
 preserveAspectRatio="xMidYMid meet">

<g transform="translate(0.000000,2966.000000) scale(0.100000,-0.100000)"
fill="#000000" stroke="none">
<path d="M26660 14830 l0 -14830 25 0 25 0 0 14830 0 14830 -25 0 -25 0 0
-14830z"/>
<path d="M12000 25069 c-141 -10 -294 -26 -388 -39 -138 -21 -209 -32 -247
-40 -22 -5 -67 -14 -100 -20 -85 -18 -305 -70 -335 -80 -14 -4 -59 -18 -100
-30 -170 -50 -374 -121 -432 -151 -10 -5 -22 -9 -28 -9 -5 0 -35 -12 -67 -26
-32 -14 -74 -33 -93 -41 -72 -32 -338 -164 -410 -204 -126 -70 -510 -297 -615
-364 -27 -18 -102 -65 -165 -105 -193 -122 -520 -343 -645 -435 -510 -376
-731 -554 -1100 -885 -153 -138 -468 -447 -611 -600 -210 -226 -506 -583 -652
-790 -85 -119 -252 -371 -252 -379 0 -5 -4 -11 -8 -13 -27 -11 -288 -491 -382
-703 -12 -27 -30 -68 -40 -90 -27 -61 -79 -192 -107 -270 -13 -38 -28 -79 -32
-90 -5 -11 -19 -54 -31 -95 -13 -41 -29 -93 -35 -115 -16 -51 -66 -257 -94
-387 -19 -89 -41 -247 -61 -430 -13 -125 -13 -514 0 -615 20 -152 41 -272 70
-403 4 -19 13 -57 19 -85 27 -126 139 -551 170 -645 5 -14 14 -43 20 -65 19
-68 52 -176 81 -265 16 -47 44 -134 63 -195 36 -110 81 -242 97 -280 4 -11 18
-47 30 -80 12 -33 31 -82 41 -109 23 -59 20 -62 -65 -71 -137 -14 -349 -68
-481 -123 -79 -33 -211 -105 -285 -156 -100 -69 -254 -223 -320 -320 -53 -80
-130 -232 -130 -258 0 -8 -4 -18 -9 -23 -8 -10 -38 -123 -63 -240 -8 -40 -12
-152 -13 -335 0 -316 20 -579 55 -745 5 -22 14 -69 21 -105 11 -58 45 -199 70
-287 5 -18 13 -48 18 -65 30 -109 134 -400 191 -535 68 -159 78 -180 162 -348
254 -505 611 -1008 1000 -1405 247 -252 447 -366 758 -431 78 -16 81 -19 97
-79 19 -78 51 -184 80 -265 13 -38 33 -95 43 -125 105 -320 355 -825 577
-1170 55 -84 183 -267 215 -305 9 -11 53 -65 99 -120 105 -127 414 -436 544
-544 89 -73 155 -124 340 -262 111 -82 528 -345 733 -461 50 -28 90 -51 187
-108 116 -68 150 -87 205 -118 25 -13 71 -40 103 -58 32 -19 60 -34 62 -34 2
0 26 -13 52 -28 121 -71 488 -259 628 -322 28 -12 68 -30 90 -40 149 -67 504
-199 620 -230 313 -85 414 -105 758 -150 120 -15 573 -12 729 5 149 17 271 37
393 64 22 5 56 12 75 16 108 22 382 108 500 157 14 6 34 14 45 18 11 5 41 17
67 29 26 12 50 21 53 21 10 0 342 165 430 213 100 55 126 69 250 144 95 57
151 92 345 213 464 290 922 639 1233 940 48 46 94 88 101 92 27 15 315 328
442 480 72 87 178 219 235 295 97 130 319 455 319 468 0 4 14 26 30 50 17 24
30 47 30 50 0 4 9 19 20 34 24 35 207 393 245 481 15 36 37 85 48 110 41 92
128 337 177 500 l38 125 83 13 c268 42 445 109 631 242 151 108 460 439 685
735 257 338 496 741 666 1125 72 164 192 492 237 650 7 25 16 56 20 70 8 23
40 153 60 245 41 185 61 351 81 697 27 443 -41 770 -210 1016 -188 273 -470
463 -836 560 -108 28 -124 32 -146 32 -13 0 -30 4 -38 9 -16 10 -11 23 63 184
20 42 36 79 36 82 0 2 11 28 24 57 14 30 34 78 46 108 12 30 32 78 46 108 13
29 24 59 24 67 0 7 4 16 9 19 5 3 12 18 16 33 3 16 12 42 20 58 23 52 86 218
101 265 8 25 19 54 24 65 19 44 92 258 138 405 130 419 155 578 154 965 0 257
-14 414 -61 671 -22 120 -91 387 -131 504 -35 103 -74 210 -86 237 -8 17 -14
34 -14 38 0 3 -9 25 -19 49 -11 23 -30 67 -41 97 -25 64 -185 388 -233 474
-19 33 -48 84 -65 113 -18 29 -32 54 -32 56 0 7 -137 222 -222 349 -358 536
-903 1150 -1508 1697 -58 52 -107 97 -110 100 -7 7 -148 130 -180 156 -339
285 -728 584 -1080 830 -330 231 -940 624 -969 624 -5 0 -11 3 -13 8 -12 27
-506 266 -698 337 -25 9 -54 21 -65 25 -74 30 -205 74 -295 100 -25 7 -54 16
-65 20 -17 7 -102 29 -225 60 -75 19 -200 46 -250 55 -19 3 -60 11 -90 16
-118 22 -310 46 -475 59 -177 15 -571 20 -715 9z m700 -139 c166 -17 376 -44
468 -60 175 -32 199 -38 377 -80 190 -46 269 -70 460 -138 126 -46 198 -74
270 -106 27 -12 66 -29 85 -36 80 -31 469 -232 615 -318 33 -19 74 -43 90 -52
130 -76 542 -346 705 -464 194 -140 529 -394 660 -501 41 -34 115 -94 164
-134 194 -158 476 -401 641 -551 104 -95 557 -549 627 -629 37 -42 78 -87 91
-101 259 -283 662 -818 837 -1109 15 -25 46 -77 70 -115 51 -84 71 -119 127
-221 84 -156 201 -406 243 -520 4 -11 12 -31 18 -45 26 -61 83 -231 113 -337
5 -18 13 -48 18 -65 17 -59 31 -112 42 -163 6 -27 15 -68 20 -90 19 -81 41
-217 59 -365 17 -134 24 -506 11 -615 -26 -223 -60 -373 -153 -670 -62 -200
-168 -512 -223 -655 -9 -25 -26 -70 -37 -100 -11 -30 -24 -64 -28 -75 -4 -11
-23 -58 -41 -105 -165 -431 -358 -826 -560 -1147 -32 -52 -43 -44 -192 137
-34 41 -64 77 -67 80 -3 3 -30 37 -60 75 -31 39 -83 104 -115 145 -33 41 -67
84 -77 95 -9 11 -70 86 -136 166 -66 80 -131 159 -144 175 -210 242 -258 299
-258 310 0 8 144 230 320 494 176 264 320 483 320 487 0 23 -237 326 -401 513
-228 260 -581 610 -854 846 -448 388 -926 723 -1420 996 -75 42 -432 220 -500
250 -33 15 -89 40 -125 56 -36 16 -98 42 -139 57 -40 16 -75 34 -78 41 -2 6
10 36 28 65 34 58 118 232 139 289 7 19 18 49 26 66 25 58 88 268 104 349 47
237 60 368 60 593 0 189 -4 241 -31 412 -61 387 -249 811 -493 1110 -106 129
-271 291 -406 397 -235 183 -620 382 -877 454 -18 5 -50 14 -70 20 -114 32
-204 51 -318 68 -219 33 -467 41 -635 21 -210 -25 -247 -32 -420 -72 -391 -91
-801 -279 -1160 -531 -214 -150 -457 -378 -626 -587 -184 -228 -357 -548 -424
-785 -70 -248 -84 -345 -84 -610 0 -220 2 -252 36 -425 53 -273 190 -605 339
-827 27 -40 49 -76 49 -81 0 -4 -26 -19 -57 -32 -58 -23 -194 -86 -328 -151
-241 -116 -580 -313 -865 -504 -478 -320 -864 -638 -1291 -1064 -413 -413
-566 -594 -600 -711 -28 -99 -39 -194 -28 -264 17 -115 18 -116 189 -471 45
-93 114 -235 152 -314 l69 -144 -38 -41 c-84 -89 -172 -184 -219 -236 -27 -30
-54 -59 -60 -65 -13 -12 -134 -150 -214 -245 -30 -36 -57 -67 -60 -70 -3 -3
-98 -115 -210 -250 -252 -301 -242 -290 -251 -290 -10 0 -121 227 -177 360
-51 122 -122 298 -132 330 -5 14 -27 77 -50 140 -23 63 -50 140 -60 170 -10
30 -25 73 -33 95 -9 22 -34 101 -57 175 -23 74 -45 146 -50 160 -5 14 -16 50
-25 80 -16 54 -23 75 -44 153 -6 20 -15 52 -20 70 -81 282 -161 621 -201 857
-30 171 -35 586 -9 795 19 156 41 298 60 385 6 25 15 64 20 88 18 84 31 137
39 162 4 14 13 45 20 70 89 314 262 725 435 1035 190 339 358 591 632 945 37
48 177 217 237 285 548 625 1188 1195 1961 1745 139 98 574 389 690 460 207
127 472 286 560 335 28 15 77 43 110 62 62 35 381 193 390 193 2 0 28 11 57
24 251 112 619 232 873 285 290 61 453 86 705 109 138 13 677 14 800 2z
m-1165 -1940 c170 -145 369 -315 442 -377 72 -62 139 -113 149 -113 12 0 152
108 194 150 13 13 155 135 250 215 58 48 132 111 165 140 206 180 320 273 328
268 12 -7 147 -281 181 -368 15 -38 34 -83 41 -100 36 -83 47 -109 95 -225 29
-69 69 -165 90 -215 21 -49 66 -157 100 -240 34 -82 70 -168 80 -190 10 -22
32 -74 48 -115 25 -64 101 -246 131 -315 5 -11 16 -36 24 -55 9 -19 25 -59 37
-89 11 -30 29 -73 40 -95 52 -115 68 -165 57 -174 -7 -5 -75 -35 -152 -67 -77
-32 -164 -68 -194 -82 -30 -13 -66 -26 -81 -29 l-26 -6 -132 395 c-73 218
-140 417 -149 444 -9 26 -18 55 -21 63 -2 8 -71 213 -152 455 -109 322 -152
440 -164 440 -8 0 -49 -40 -91 -90 -43 -49 -87 -101 -99 -115 -123 -143 -466
-541 -520 -604 -38 -45 -72 -82 -76 -84 -7 -3 -206 221 -355 399 -254 302
-428 499 -440 499 -11 0 -42 -87 -142 -390 -19 -58 -50 -150 -69 -205 -19 -55
-116 -343 -215 -640 -100 -297 -185 -548 -190 -557 -7 -13 -14 -15 -27 -9 -24
13 -75 35 -167 71 -44 18 -99 40 -121 51 -23 10 -63 27 -90 37 -27 11 -50 26
-52 34 -2 9 8 40 22 69 13 30 39 90 56 134 17 44 40 98 50 121 11 22 29 65 40
95 12 30 28 69 36 87 8 17 20 47 28 65 8 17 24 56 36 86 11 30 29 73 40 95 10
23 33 77 50 121 17 44 40 98 50 120 10 22 50 119 90 215 40 96 80 193 90 215
10 22 34 79 54 128 20 48 52 126 72 175 55 134 195 430 211 445 8 8 -17 29
348 -283z m1100 -2420 c221 -18 373 -35 545 -61 222 -35 512 -98 710 -156 47
-14 99 -29 115 -33 63 -16 360 -118 440 -150 11 -4 52 -20 90 -35 295 -112
739 -335 1065 -535 441 -270 765 -509 1195 -885 358 -312 790 -771 1059 -1123
l48 -63 -31 -50 c-17 -28 -31 -59 -31 -69 0 -10 -115 -192 -255 -405 l-256
-386 -242 244 c-405 407 -710 659 -1172 967 -338 225 -810 488 -1145 638 -281
125 -671 270 -885 327 -380 103 -615 151 -925 189 -303 38 -351 41 -745 41
-417 0 -529 -7 -870 -56 -121 -18 -365 -63 -475 -90 -19 -4 -55 -13 -80 -18
-178 -41 -451 -124 -655 -199 -106 -39 -164 -61 -200 -77 -16 -8 -54 -23 -84
-35 -30 -11 -73 -29 -95 -39 -23 -10 -70 -31 -106 -47 -190 -82 -640 -324
-875 -471 -220 -137 -319 -201 -410 -266 -96 -68 -335 -246 -345 -257 -3 -3
-41 -34 -85 -70 -126 -101 -281 -237 -390 -340 -101 -96 -152 -147 -321 -322
-52 -53 -99 -100 -104 -103 -6 -4 -28 31 -51 82 -22 48 -60 129 -84 178 -51
106 -109 231 -158 335 -19 41 -51 110 -72 154 -32 65 -36 82 -27 97 7 10 12
45 12 78 0 68 33 174 74 239 48 76 262 310 515 562 387 387 699 649 1161 977
167 118 483 314 695 430 92 51 402 205 490 245 158 71 196 87 275 117 47 18
94 37 105 41 11 4 46 17 78 29 31 12 81 30 110 40 49 19 224 73 382 119 39 12
131 35 205 52 74 17 151 35 170 40 19 5 60 13 90 19 300 55 433 73 755 100
147 12 640 13 790 1z m-2843 -2301 c203 -40 306 -75 490 -166 206 -103 385
-237 558 -420 336 -353 529 -836 565 -1409 6 -96 5 -112 -10 -127 -17 -18 -43
-22 -60 -9 -6 4 -41 56 -79 115 -248 391 -610 706 -997 866 -291 120 -490 161
-782 161 -286 0 -520 -56 -778 -186 -331 -166 -634 -467 -845 -839 -32 -57
-69 -109 -81 -116 -28 -15 -69 -15 -98 1 -43 23 -49 57 -42 238 9 232 37 400
99 592 27 85 36 100 84 147 213 204 812 640 1174 854 218 128 232 136 415 232
l170 88 82 -6 c45 -3 106 -10 135 -16z m5251 -56 c84 -42 189 -98 235 -125 46
-26 85 -48 87 -48 5 0 201 -120 330 -203 141 -91 380 -258 515 -361 278 -212
545 -444 564 -490 12 -28 52 -181 71 -269 36 -172 47 -498 18 -548 -32 -53
-106 -59 -144 -10 -11 14 -49 76 -85 136 -112 188 -205 307 -364 465 -282 281
-613 449 -995 505 -126 18 -381 19 -505 0 -626 -91 -1182 -468 -1529 -1037
-54 -88 -74 -105 -111 -93 -30 10 -34 45 -20 194 61 673 321 1194 775 1552
171 135 383 254 569 319 124 43 308 83 409 88 18 1 85 -27 180 -75z m2494
-2000 c65 -76 139 -163 163 -193 25 -30 47 -57 51 -60 3 -3 99 -122 214 -265
273 -341 329 -407 409 -486 l66 -66 5 -209 c2 -115 4 -220 4 -234 -1 -14 -2
-416 -4 -895 -3 -540 -8 -897 -15 -940 -10 -65 -40 -179 -61 -233 -11 -29 -12
-62 -1 -62 20 0 131 87 185 144 32 33 72 90 90 126 29 60 32 73 32 160 -1 85
-4 102 -32 160 -17 36 -51 87 -77 114 -48 51 -55 66 -33 66 17 0 114 -92 149
-140 60 -84 93 -254 68 -347 -7 -27 -16 -52 -20 -58 -4 -5 -13 -27 -20 -48
-30 -96 -202 -216 -314 -221 -61 -3 -80 -14 -103 -60 -32 -65 -107 -167 -179
-245 -75 -80 -225 -201 -250 -201 -14 0 -15 6 -34 160 -7 52 -23 145 -36 205
-33 151 -49 211 -92 340 -62 187 -181 452 -271 603 l-31 53 0 1484 c0 875 4
1485 9 1485 5 0 62 -62 128 -137z m-10537 -1355 l0 -1462 -68 -90 c-228 -305
-383 -628 -460 -956 -6 -25 -17 -69 -23 -97 -7 -29 -16 -53 -20 -53 -4 0 -27
19 -51 43 -156 153 -270 344 -319 537 -38 145 -39 177 -39 1316 l0 1110 48 55
c27 29 120 140 207 244 86 105 167 201 179 215 157 186 202 238 270 315 144
163 258 285 267 285 5 0 9 -624 9 -1462z m12285 287 c33 -10 74 -24 92 -31 17
-8 34 -14 38 -14 21 0 225 -170 225 -187 0 -6 9 -18 20 -28 11 -10 20 -22 20
-26 0 -4 14 -28 30 -52 17 -25 30 -54 30 -66 0 -11 9 -38 20 -59 46 -88 50
-320 8 -429 l-23 -58 -6 115 c-9 166 -38 290 -91 385 -7 11 -18 34 -27 50 -8
17 -17 32 -20 35 -4 3 -15 19 -25 35 -11 17 -25 37 -32 45 -48 54 -64 69 -106
103 -64 51 -171 103 -242 117 -66 13 -199 6 -282 -15 -134 -35 -294 -151 -388
-282 -21 -29 -42 -53 -47 -53 -11 0 -7 33 7 52 5 7 16 25 23 40 25 49 200 218
227 218 6 0 18 7 25 17 21 24 112 64 209 90 101 27 219 26 315 -2z m-8725
-120 c176 -47 307 -168 362 -333 16 -50 18 -99 18 -568 l0 -512 -67 -38 c-133
-73 -227 -143 -427 -314 -15 -14 -69 -73 -118 -132 -50 -60 -93 -108 -97 -108
-3 0 -28 13 -56 29 -120 70 -190 157 -235 295 -19 56 -20 90 -20 669 l0 610
26 76 c73 210 251 337 479 340 44 0 105 -6 135 -14z m3678 1 c147 -40 265
-130 329 -253 55 -105 54 -98 51 -784 l-3 -636 -42 -85 c-48 -95 -130 -182
-211 -221 l-44 -22 -46 55 c-85 103 -287 295 -377 358 -50 35 -136 92 -192
125 l-103 62 0 496 0 496 26 79 c39 121 130 230 239 287 102 53 265 71 373 43z
m4262 -1671 c13 -16 3 -20 -24 -9 -9 3 -13 10 -10 15 8 13 20 11 34 -6z m-29
-1938 c-6 -6 -11 -20 -11 -31 0 -48 -49 -141 -94 -181 -26 -22 -46 -45 -46
-51 0 -6 -24 -23 -53 -37 -71 -36 -144 -37 -204 -2 -23 14 -43 30 -43 35 0 14
35 30 64 30 37 0 146 30 189 52 71 36 145 127 189 233 l12 30 4 -34 c2 -18 -1
-38 -7 -44z m-2120 -2510 c-10 -9 -11 -8 -5 6 3 10 9 15 12 12 3 -3 0 -11 -7
-18z m-11 -22 c0 -3 -17 -31 -38 -63 -21 -31 -47 -71 -58 -88 -38 -62 -98
-148 -150 -218 -29 -39 -65 -86 -78 -104 -14 -19 -45 -57 -70 -85 -25 -29 -71
-82 -101 -119 -31 -38 -62 -68 -70 -68 -7 0 -15 -10 -19 -23 -5 -20 -168 -189
-288 -297 -38 -34 -83 -78 -96 -93 -22 -24 -251 -211 -320 -262 -46 -33 -107
-79 -137 -102 -29 -24 -56 -43 -59 -43 -3 0 -40 -22 -82 -50 -42 -27 -82 -50
-89 -50 -7 0 -15 -6 -18 -13 -4 -11 -77 -57 -221 -139 -72 -40 -376 -188 -388
-188 -8 0 -23 -7 -36 -15 -12 -9 -70 -34 -129 -57 -60 -22 -130 -49 -158 -60
-27 -11 -66 -24 -85 -30 -19 -5 -69 -21 -110 -35 -101 -34 -194 -59 -305 -82
-22 -5 -84 -18 -139 -30 -94 -20 -164 -28 -101 -11 52 14 249 81 280 96 17 8
61 25 98 38 37 13 71 26 74 30 4 3 14 6 23 6 9 0 48 15 86 34 102 50 158 74
190 82 16 4 62 25 102 46 40 21 80 38 89 38 8 0 28 11 44 24 15 13 50 32 76
42 26 10 59 25 73 34 14 9 41 25 60 35 47 24 97 51 145 79 271 157 369 218
381 237 3 5 14 9 25 9 10 0 19 4 19 9 0 5 15 18 33 29 62 40 173 118 236 167
35 28 83 64 106 80 44 32 63 47 98 80 35 33 124 105 130 105 3 0 43 36 89 80
45 44 86 80 89 80 12 0 416 417 446 460 8 11 21 20 29 20 8 0 14 6 14 13 0 7
10 24 23 37 32 35 171 205 225 277 42 55 62 74 62 58z"/>
<path d="M10520 23980 c-14 -4 -56 -12 -95 -18 -176 -28 -385 -104 -621 -227
-82 -43 -192 -100 -244 -127 -92 -49 -348 -197 -426 -248 -126 -83 -406 -286
-469 -341 -11 -9 -56 -48 -100 -85 -188 -160 -383 -350 -548 -534 -67 -74
-136 -151 -154 -170 -18 -19 -33 -38 -33 -42 0 -4 -6 -13 -13 -20 -25 -27 -94
-113 -101 -128 -8 -16 20 14 93 99 147 174 389 420 566 577 97 86 388 320 459
369 28 20 96 67 151 105 55 38 104 69 109 69 6 1 19 10 30 20 34 30 289 176
446 255 133 66 245 114 390 169 30 11 69 26 85 32 17 7 41 16 55 20 51 16 319
131 455 196 l80 38 -45 0 c-25 0 -56 -4 -70 -9z"/>
<path d="M10361 14705 c-161 -50 -190 -261 -48 -349 146 -90 327 2 327 166 0
88 -55 156 -147 184 -56 17 -75 17 -132 -1z"/>
<path d="M14041 14705 c-161 -50 -190 -261 -47 -350 97 -59 221 -39 290 48 25
31 31 49 34 101 6 100 -45 172 -142 201 -59 18 -78 18 -135 0z"/>
</g>
</svg>
